<mxfile host="app.diagrams.net" modified="2024-06-03T12:14:31.618Z" agent="Mozilla/5.0 (Windows NT 10.0; Win64; x64) AppleWebKit/537.36 (KHTML, like Gecko) Chrome/125.0.0.0 Safari/537.36" etag="XUBqOH6QspP3Yhwb4wUb" version="24.4.13" type="github">
  <diagram name="Página-1" id="Zr3Eyvrs4BTdVfVQr2vD">
    <mxGraphModel dx="880" dy="434" grid="1" gridSize="10" guides="1" tooltips="1" connect="1" arrows="1" fold="1" page="1" pageScale="1" pageWidth="827" pageHeight="1169" math="0" shadow="0">
      <root>
        <mxCell id="0" />
        <mxCell id="1" parent="0" />
        <mxCell id="4nf6rPSZ_dcbyLTF99QT-17" style="edgeStyle=orthogonalEdgeStyle;rounded=0;orthogonalLoop=1;jettySize=auto;html=1;exitX=0.5;exitY=1;exitDx=0;exitDy=0;entryX=0.5;entryY=0;entryDx=0;entryDy=0;" edge="1" parent="1" source="4nf6rPSZ_dcbyLTF99QT-1" target="4nf6rPSZ_dcbyLTF99QT-2">
          <mxGeometry relative="1" as="geometry" />
        </mxCell>
        <mxCell id="4nf6rPSZ_dcbyLTF99QT-1" value="CLIENTE" style="rounded=0;whiteSpace=wrap;html=1;" vertex="1" parent="1">
          <mxGeometry x="40" y="40" width="120" height="60" as="geometry" />
        </mxCell>
        <mxCell id="4nf6rPSZ_dcbyLTF99QT-18" style="edgeStyle=orthogonalEdgeStyle;rounded=0;orthogonalLoop=1;jettySize=auto;html=1;entryX=0.5;entryY=0;entryDx=0;entryDy=0;" edge="1" parent="1" source="4nf6rPSZ_dcbyLTF99QT-2" target="4nf6rPSZ_dcbyLTF99QT-5">
          <mxGeometry relative="1" as="geometry" />
        </mxCell>
        <mxCell id="4nf6rPSZ_dcbyLTF99QT-2" value="SERVIÇO DE ENTRADA DE API" style="rounded=0;whiteSpace=wrap;html=1;" vertex="1" parent="1">
          <mxGeometry x="40" y="140" width="120" height="60" as="geometry" />
        </mxCell>
        <mxCell id="4nf6rPSZ_dcbyLTF99QT-23" style="edgeStyle=orthogonalEdgeStyle;rounded=0;orthogonalLoop=1;jettySize=auto;html=1;entryX=0.5;entryY=0;entryDx=0;entryDy=0;" edge="1" parent="1" source="4nf6rPSZ_dcbyLTF99QT-5" target="4nf6rPSZ_dcbyLTF99QT-9">
          <mxGeometry relative="1" as="geometry" />
        </mxCell>
        <mxCell id="4nf6rPSZ_dcbyLTF99QT-5" value="&lt;span style=&quot;color: rgb(13, 13, 13); font-family: ui-sans-serif, -apple-system, system-ui, &amp;quot;Segoe UI&amp;quot;, Roboto, Ubuntu, Cantarell, &amp;quot;Noto Sans&amp;quot;, sans-serif, Helvetica, &amp;quot;Apple Color Emoji&amp;quot;, Arial, &amp;quot;Segoe UI Emoji&amp;quot;, &amp;quot;Segoe UI Symbol&amp;quot;; font-size: 16px; text-align: left; white-space-collapse: preserve; background-color: rgb(255, 255, 255);&quot;&gt;Mensagem Fila (AWS SQS)&lt;/span&gt;" style="rounded=0;whiteSpace=wrap;html=1;" vertex="1" parent="1">
          <mxGeometry x="40" y="240" width="120" height="60" as="geometry" />
        </mxCell>
        <mxCell id="4nf6rPSZ_dcbyLTF99QT-24" style="edgeStyle=orthogonalEdgeStyle;rounded=0;orthogonalLoop=1;jettySize=auto;html=1;entryX=0.5;entryY=0;entryDx=0;entryDy=0;" edge="1" parent="1" source="4nf6rPSZ_dcbyLTF99QT-9" target="4nf6rPSZ_dcbyLTF99QT-10">
          <mxGeometry relative="1" as="geometry" />
        </mxCell>
        <mxCell id="4nf6rPSZ_dcbyLTF99QT-9" value="&lt;span style=&quot;color: rgb(13, 13, 13); font-family: ui-sans-serif, -apple-system, system-ui, &amp;quot;Segoe UI&amp;quot;, Roboto, Ubuntu, Cantarell, &amp;quot;Noto Sans&amp;quot;, sans-serif, Helvetica, &amp;quot;Apple Color Emoji&amp;quot;, Arial, &amp;quot;Segoe UI Emoji&amp;quot;, &amp;quot;Segoe UI Symbol&amp;quot;; font-size: 16px; text-align: left; white-space-collapse: preserve; background-color: rgb(255, 255, 255);&quot;&gt;Microserviço de Validação&lt;/span&gt;" style="rounded=0;whiteSpace=wrap;html=1;" vertex="1" parent="1">
          <mxGeometry x="40" y="340" width="120" height="60" as="geometry" />
        </mxCell>
        <mxCell id="4nf6rPSZ_dcbyLTF99QT-34" style="edgeStyle=orthogonalEdgeStyle;rounded=0;orthogonalLoop=1;jettySize=auto;html=1;entryX=0.5;entryY=0;entryDx=0;entryDy=0;" edge="1" parent="1" source="4nf6rPSZ_dcbyLTF99QT-10" target="4nf6rPSZ_dcbyLTF99QT-30">
          <mxGeometry relative="1" as="geometry" />
        </mxCell>
        <mxCell id="4nf6rPSZ_dcbyLTF99QT-10" value="&lt;span style=&quot;color: rgb(13, 13, 13); font-family: ui-sans-serif, -apple-system, system-ui, &amp;quot;Segoe UI&amp;quot;, Roboto, Ubuntu, Cantarell, &amp;quot;Noto Sans&amp;quot;, sans-serif, Helvetica, &amp;quot;Apple Color Emoji&amp;quot;, Arial, &amp;quot;Segoe UI Emoji&amp;quot;, &amp;quot;Segoe UI Symbol&amp;quot;; font-size: 16px; text-align: left; white-space-collapse: preserve; background-color: rgb(255, 255, 255);&quot;&gt;Microserviço de Segurança&lt;/span&gt;" style="rounded=0;whiteSpace=wrap;html=1;" vertex="1" parent="1">
          <mxGeometry x="40" y="440" width="120" height="60" as="geometry" />
        </mxCell>
        <mxCell id="4nf6rPSZ_dcbyLTF99QT-14" value="Processamento de dados" style="text;html=1;align=center;verticalAlign=middle;resizable=0;points=[];autosize=1;strokeColor=none;fillColor=none;" vertex="1" parent="1">
          <mxGeometry x="190" y="310" width="160" height="30" as="geometry" />
        </mxCell>
        <mxCell id="4nf6rPSZ_dcbyLTF99QT-16" value="Entrada de dados" style="text;html=1;align=center;verticalAlign=middle;resizable=0;points=[];autosize=1;strokeColor=none;fillColor=none;" vertex="1" parent="1">
          <mxGeometry x="190" y="55" width="120" height="30" as="geometry" />
        </mxCell>
        <mxCell id="4nf6rPSZ_dcbyLTF99QT-25" value="&lt;span style=&quot;color: rgb(13, 13, 13); font-family: ui-sans-serif, -apple-system, system-ui, &amp;quot;Segoe UI&amp;quot;, Roboto, Ubuntu, Cantarell, &amp;quot;Noto Sans&amp;quot;, sans-serif, Helvetica, &amp;quot;Apple Color Emoji&amp;quot;, Arial, &amp;quot;Segoe UI Emoji&amp;quot;, &amp;quot;Segoe UI Symbol&amp;quot;; font-size: 16px; text-align: left; white-space-collapse: preserve; background-color: rgb(255, 255, 255);&quot;&gt;Banco de Dados Transacional (OLTP)&lt;/span&gt;" style="rounded=0;whiteSpace=wrap;html=1;" vertex="1" parent="1">
          <mxGeometry x="220" y="470" width="130" height="70" as="geometry" />
        </mxCell>
        <mxCell id="4nf6rPSZ_dcbyLTF99QT-26" value="&lt;span style=&quot;color: rgb(13, 13, 13); font-family: ui-sans-serif, -apple-system, system-ui, &amp;quot;Segoe UI&amp;quot;, Roboto, Ubuntu, Cantarell, &amp;quot;Noto Sans&amp;quot;, sans-serif, Helvetica, &amp;quot;Apple Color Emoji&amp;quot;, Arial, &amp;quot;Segoe UI Emoji&amp;quot;, &amp;quot;Segoe UI Symbol&amp;quot;; font-size: 16px; text-align: left; white-space-collapse: preserve; background-color: rgb(255, 255, 255);&quot;&gt;Banco de Dados Histórico (OLAP)&lt;/span&gt;" style="rounded=0;whiteSpace=wrap;html=1;" vertex="1" parent="1">
          <mxGeometry x="220" y="600" width="130" height="70" as="geometry" />
        </mxCell>
        <mxCell id="4nf6rPSZ_dcbyLTF99QT-29" value="Armazenamento de dados" style="text;html=1;align=center;verticalAlign=middle;resizable=0;points=[];autosize=1;strokeColor=none;fillColor=none;" vertex="1" parent="1">
          <mxGeometry x="190" y="555" width="160" height="30" as="geometry" />
        </mxCell>
        <mxCell id="4nf6rPSZ_dcbyLTF99QT-31" style="edgeStyle=orthogonalEdgeStyle;rounded=0;orthogonalLoop=1;jettySize=auto;html=1;entryX=0;entryY=0.5;entryDx=0;entryDy=0;" edge="1" parent="1" source="4nf6rPSZ_dcbyLTF99QT-30" target="4nf6rPSZ_dcbyLTF99QT-25">
          <mxGeometry relative="1" as="geometry" />
        </mxCell>
        <mxCell id="4nf6rPSZ_dcbyLTF99QT-32" style="edgeStyle=orthogonalEdgeStyle;rounded=0;orthogonalLoop=1;jettySize=auto;html=1;" edge="1" parent="1" source="4nf6rPSZ_dcbyLTF99QT-30" target="4nf6rPSZ_dcbyLTF99QT-26">
          <mxGeometry relative="1" as="geometry" />
        </mxCell>
        <mxCell id="4nf6rPSZ_dcbyLTF99QT-35" style="edgeStyle=orthogonalEdgeStyle;rounded=0;orthogonalLoop=1;jettySize=auto;html=1;entryX=0.5;entryY=0;entryDx=0;entryDy=0;" edge="1" parent="1" source="4nf6rPSZ_dcbyLTF99QT-30" target="4nf6rPSZ_dcbyLTF99QT-33">
          <mxGeometry relative="1" as="geometry" />
        </mxCell>
        <mxCell id="4nf6rPSZ_dcbyLTF99QT-30" value="Banco de Dados" style="rounded=0;whiteSpace=wrap;html=1;" vertex="1" parent="1">
          <mxGeometry x="40" y="540" width="120" height="60" as="geometry" />
        </mxCell>
        <mxCell id="4nf6rPSZ_dcbyLTF99QT-33" value="ETL" style="rounded=0;whiteSpace=wrap;html=1;" vertex="1" parent="1">
          <mxGeometry x="40" y="650" width="120" height="60" as="geometry" />
        </mxCell>
        <mxCell id="4nf6rPSZ_dcbyLTF99QT-36" value="SERVIÇO DE NUVEM (AWS/GCP/AZURE)" style="rounded=0;whiteSpace=wrap;html=1;" vertex="1" parent="1">
          <mxGeometry x="40" y="1180" width="120" height="60" as="geometry" />
        </mxCell>
        <mxCell id="4nf6rPSZ_dcbyLTF99QT-37" value="KUBERNETES" style="rounded=0;whiteSpace=wrap;html=1;" vertex="1" parent="1">
          <mxGeometry x="40" y="1080" width="120" height="60" as="geometry" />
        </mxCell>
        <mxCell id="4nf6rPSZ_dcbyLTF99QT-38" value="CACHE" style="rounded=0;whiteSpace=wrap;html=1;" vertex="1" parent="1">
          <mxGeometry x="40" y="980" width="120" height="60" as="geometry" />
        </mxCell>
        <mxCell id="4nf6rPSZ_dcbyLTF99QT-39" value="API GATEWAY" style="rounded=0;whiteSpace=wrap;html=1;" vertex="1" parent="1">
          <mxGeometry x="40" y="870" width="120" height="60" as="geometry" />
        </mxCell>
        <mxCell id="4nf6rPSZ_dcbyLTF99QT-40" value="ARMAZENAMENTO EM NUVEM" style="rounded=0;whiteSpace=wrap;html=1;" vertex="1" parent="1">
          <mxGeometry x="40" y="760" width="120" height="60" as="geometry" />
        </mxCell>
        <mxCell id="4nf6rPSZ_dcbyLTF99QT-41" value="Nuvem" style="text;html=1;align=center;verticalAlign=middle;whiteSpace=wrap;rounded=0;" vertex="1" parent="1">
          <mxGeometry x="190" y="1150" width="60" height="30" as="geometry" />
        </mxCell>
        <mxCell id="4nf6rPSZ_dcbyLTF99QT-42" value="Entrega e Escalabilidade" style="text;html=1;align=center;verticalAlign=middle;whiteSpace=wrap;rounded=0;" vertex="1" parent="1">
          <mxGeometry x="200" y="950" width="140" height="30" as="geometry" />
        </mxCell>
        <mxCell id="4nf6rPSZ_dcbyLTF99QT-44" value="Importação Mensal" style="text;html=1;align=center;verticalAlign=middle;whiteSpace=wrap;rounded=0;" vertex="1" parent="1">
          <mxGeometry x="190" y="720" width="120" height="30" as="geometry" />
        </mxCell>
      </root>
    </mxGraphModel>
  </diagram>
</mxfile>
